<svg width="1440" height="1234" viewBox="0 0 1440 1234" fill="none" xmlns="http://www.w3.org/2000/svg">
<path d="M1345.42 920.02L1439.28 864.831L1469.2 109.59C1469.2 109.59 1349.18 19.974 1232.83 63.7695C1149.21 95.2448 1079.87 208.517 995.752 237.862C894.536 273.171 801.253 205.486 697.486 226.044C606.226 244.124 565.339 319.68 473.096 319.833C384.587 319.98 346.78 220.494 258.82 234.181C189.045 245.038 163.229 302.171 97.7364 334.123C60.4831 352.298 0.556616 374.625 0.556616 374.625L-30.234 1151.71L60.1032 1155.28C128.354 1157.99 194.74 1132.66 243.84 1085.17C303.016 1027.95 386.566 1003.51 467.253 1019.83L485.187 1023.46C538.125 1034.17 593.017 1029.6 643.461 1010.3L723.024 979.856C820.057 942.726 925.301 932.422 1027.69 950.026L1106.74 963.616C1188.95 977.75 1273.52 962.305 1345.42 920.02Z" fill="#441AE7" fill-opacity="0.7"/>
<path d="M1345.79 949.323L1439.55 895.842L1468.92 154.634C1468.92 154.634 1347.54 66.5413 1230.02 109.391C1145.56 140.187 1075.63 251.28 990.666 279.984C888.433 314.522 794.095 247.984 689.267 268.042C597.073 285.682 555.845 359.79 462.638 359.834C373.203 359.876 334.886 262.191 246.021 275.523C175.529 286.098 149.509 342.143 83.3681 373.428C45.7461 391.223 -14.7815 413.067 -14.7815 413.067L-45 1175.71L47.7217 1179.38C115.882 1182.08 182.273 1157.3 231.995 1110.6C291.799 1054.43 375.018 1030.55 455.509 1046.45L475.927 1050.48C529.319 1061.03 584.587 1056.6 635.618 1037.68L715.923 1007.92C814.035 971.548 919.968 961.537 1023.16 978.882L1103.51 992.39C1186.82 1006.39 1272.41 991.18 1345.79 949.323Z" fill="#E5E5E5" fill-opacity="0.25"/>
<path d="M1354.33 853.344L1440 808V185.5C1440 185.5 1316.53 115.665 1202 155.5C1119.69 184.129 1054.89 279.607 972 306.5C872.262 338.858 776.372 286.198 673.5 306.5C583.028 324.355 545.164 387.866 453 391C364.566 394.007 322.849 313.368 235.5 327.5C166.209 338.71 142.676 386.57 78.5 415C41.9955 431.172 -17 451.5 -17 451.5V1092H81.8506C145.396 1092 206.828 1069.17 254.956 1027.68C312.27 978.267 387.97 955.703 462.984 965.671L494.539 969.865C547.145 976.855 600.659 971.287 650.7 953.617L728.771 926.047C824.858 892.116 927.339 880.192 1028.65 891.157L1110.81 900.049C1194.83 909.141 1279.64 892.875 1354.33 853.344Z" fill="#441AE7"/>
</svg>
