<svg width="1440" height="695" viewBox="0 0 1440 695" fill="none" xmlns="http://www.w3.org/2000/svg">
<path d="M-63 -852C-63 -852 30.0668 -785.809 101.077 -764.165C211.341 -730.554 287.277 -790.016 400.275 -764.165C497.114 -742.01 529.952 -679.248 628.052 -661.783C737.473 -642.303 805.74 -716.754 912.451 -688.078C1022.53 -658.497 1089.96 -611.531 1134.44 -519.12C1201.9 -378.957 939.089 -297.49 987.733 -151.554C1015.33 -68.7593 1131.38 -57.5688 1134.44 28.5923C1137.63 118.717 988.397 130.881 987.733 221.047C987.117 304.649 1089.49 306.755 1059.15 386.088C1031.35 458.811 999.804 488.883 912.451 499.099C794.87 512.851 746.229 397.129 628.052 406.229C541.185 412.917 510.621 482.232 423.439 483.994C311.972 486.247 210.461 406.229 101.077 453.783C18.1143 489.85 -63 644 -63 644V-852Z" fill="#5D49C5"/>
<path d="M-6.58276 -852C-6.58276 -852 86.484 -784.128 157.494 -761.933C267.759 -727.469 343.694 -788.441 456.692 -761.933C553.531 -739.216 586.369 -674.859 684.469 -656.951C793.89 -636.977 862.158 -713.319 968.868 -683.914C1078.94 -653.582 1146.38 -605.423 1190.85 -510.665C1258.31 -366.941 995.506 -283.405 1044.15 -133.762C1071.75 -48.8642 1187.8 -37.3894 1190.85 50.9604C1194.05 143.375 1044.81 155.848 1044.15 248.304C1043.53 334.029 1145.91 336.188 1115.57 417.537C1087.76 492.107 1056.22 522.943 968.868 533.419C851.288 547.52 802.646 428.859 684.469 438.189C597.602 445.048 567.039 516.123 479.856 517.93C368.39 520.24 266.878 438.189 157.494 486.951C74.5315 523.935 -6.58276 682 -6.58276 682V-852Z" fill="#E5E5E5" fill-opacity="0.25"/>
<path d="M-6.58276 -785C-6.58276 -785 76.154 -724.782 139.282 -705.091C237.308 -674.514 304.815 -728.609 405.271 -705.091C491.361 -684.936 520.554 -627.837 607.765 -611.948C705.041 -594.226 765.731 -661.959 860.597 -635.87C958.454 -608.959 1018.4 -566.231 1057.94 -482.16C1117.92 -354.645 884.278 -280.529 927.523 -147.763C952.058 -72.4395 1055.23 -62.2589 1057.94 16.1271C1060.78 98.1191 928.114 109.185 927.523 191.215C926.976 267.272 1017.99 269.188 991.017 341.362C966.295 407.522 938.254 434.881 860.597 444.175C756.068 456.686 712.825 351.407 607.765 359.686C530.54 365.771 503.369 428.83 425.863 430.433C326.769 432.482 236.525 359.685 139.282 402.948C65.5282 435.761 -6.58276 576 -6.58276 576V-785Z" fill="#000B54"/>
<path d="M136.414 435.501C136.443 435.501 136.471 435.501 136.5 435.501C146.958 435.501 145.015 435.501 136.414 435.501C94.1406 435.686 198.347 573.289 295.092 604.544C393.597 636.368 452.019 554.724 559.184 546.096C728.662 532.45 818.294 613.819 988.332 604.544C1110.09 597.903 1171.56 525.876 1290.44 546.096C1374.16 560.336 1476 632.135 1476 632.135V822.001H33.5016L33.5016 435.5C33.5016 435.5 111.932 435.501 136.414 435.501Z" fill="#7F70CD"/>
<path d="M292.552 643.416C198.485 600.328 57.4419 504.523 107.5 422C153.239 346.598 -1.87402 363.836 -1.87402 363.836L2.5 2182.5H1440V681.427C1440 681.427 1341.05 582.511 1259.69 562.893C1144.18 535.038 1084.45 634.267 966.15 643.416C800.929 656.194 713.837 544.094 549.161 562.893C445.033 574.78 388.266 687.259 292.552 643.416Z" fill="#000B54" stroke="black"/>
</svg>
