<svg width="1440" height="340" viewBox="0 0 1440 340" fill="none" xmlns="http://www.w3.org/2000/svg">
<path d="M-63 -1194C-63 -1194 30.0668 -1127.81 101.077 -1106.16C211.341 -1072.55 287.277 -1132.02 400.275 -1106.16C497.114 -1084.01 529.952 -1021.25 628.052 -1003.78C737.473 -984.303 805.74 -1058.75 912.451 -1030.08C1022.53 -1000.5 1089.96 -953.531 1134.44 -861.12C1201.9 -720.957 939.089 -639.49 987.733 -493.554C1015.33 -410.759 1131.38 -399.569 1134.44 -313.408C1137.63 -223.283 988.397 -211.119 987.733 -120.953C987.117 -37.3508 1089.49 -35.2454 1059.15 44.0883C1031.35 116.811 999.804 146.883 912.451 157.099C794.87 170.851 746.229 55.1294 628.052 64.2289C541.185 70.9175 510.621 140.232 423.439 141.994C311.972 144.247 210.461 64.2289 101.077 111.783C18.1143 147.85 -63 302 -63 302V-1194Z" fill="#5D49C5"/>
<path d="M-6.58276 -1194C-6.58276 -1194 86.484 -1126.13 157.494 -1103.93C267.759 -1069.47 343.694 -1130.44 456.692 -1103.93C553.531 -1081.22 586.369 -1016.86 684.469 -998.951C793.89 -978.977 862.158 -1055.32 968.868 -1025.91C1078.94 -995.582 1146.38 -947.423 1190.85 -852.665C1258.31 -708.941 995.506 -625.405 1044.15 -475.762C1071.75 -390.864 1187.8 -379.389 1190.85 -291.04C1194.05 -198.625 1044.81 -186.152 1044.15 -93.6963C1043.53 -7.9707 1145.91 -5.81177 1115.57 75.5371C1087.76 150.107 1056.22 180.943 968.868 191.419C851.288 205.52 802.646 86.8588 684.469 96.1892C597.602 103.048 567.039 174.123 479.856 175.93C368.39 178.24 266.878 96.1892 157.494 144.951C74.5315 181.935 -6.58276 340 -6.58276 340V-1194Z" fill="#E5E5E5" fill-opacity="0.25"/>
<path d="M-6.58276 -1127C-6.58276 -1127 76.154 -1066.78 139.282 -1047.09C237.308 -1016.51 304.815 -1070.61 405.271 -1047.09C491.361 -1026.94 520.554 -969.837 607.765 -953.948C705.041 -936.226 765.731 -1003.96 860.597 -977.87C958.454 -950.959 1018.4 -908.231 1057.94 -824.16C1117.92 -696.645 884.278 -622.529 927.523 -489.763C952.058 -414.439 1055.23 -404.259 1057.94 -325.873C1060.78 -243.881 928.114 -232.815 927.523 -150.785C926.976 -74.7275 1017.99 -72.8121 991.017 -0.637573C966.295 65.5222 938.254 92.8809 860.597 102.175C756.068 114.686 712.825 9.40723 607.765 17.6855C530.54 23.7705 503.369 86.8302 425.863 88.4331C326.769 90.4824 236.525 17.6854 139.282 60.9484C65.5282 93.761 -6.58276 234 -6.58276 234V-1127Z" fill="#000B54"/>
<path d="M136.414 93.5008C136.443 93.5007 136.471 93.5006 136.5 93.5006C146.958 93.5008 145.015 93.5008 136.414 93.5008C94.1406 93.6859 198.347 231.289 295.092 262.544C393.597 294.368 452.019 212.724 559.184 204.096C728.662 190.45 818.294 271.819 988.332 262.544C1110.09 255.903 1171.56 183.876 1290.44 204.096C1374.16 218.336 1476 290.135 1476 290.135V480.001H33.5016L33.5016 93.5005C33.5016 93.5005 111.932 93.5008 136.414 93.5008Z" fill="#7F70CD"/>
<path d="M292.552 301.416C198.485 258.328 57.4419 162.523 107.5 80C153.239 4.59759 -1.87402 21.8364 -1.87402 21.8364L2.5 1840.5H1440V339.427C1440 339.427 1341.05 240.511 1259.69 220.893C1144.18 193.038 1084.45 292.267 966.15 301.416C800.929 314.194 713.837 202.094 549.161 220.893C445.033 232.78 388.266 345.259 292.552 301.416Z" fill="#000B54" stroke="black"/>
</svg>
