<svg width="1440" height="654" viewBox="0 0 1440 654" fill="none" xmlns="http://www.w3.org/2000/svg">
<rect y="-517" width="1440" height="1235" fill="#441AE7"/>
<path d="M-63 -880C-63 -880 30.0668 -813.809 101.077 -792.165C211.341 -758.554 287.277 -818.016 400.275 -792.165C497.114 -770.01 529.952 -707.248 628.052 -689.783C737.473 -670.303 805.74 -744.754 912.451 -716.078C1022.53 -686.497 1089.96 -639.531 1134.44 -547.12C1201.9 -406.957 939.089 -325.49 987.733 -179.554C1015.33 -96.7593 1131.38 -85.5688 1134.44 0.592346C1137.63 90.7173 988.397 102.881 987.733 193.047C987.117 276.649 1089.49 278.755 1059.15 358.088C1031.35 430.811 999.804 460.883 912.451 471.099C794.87 484.851 746.229 369.129 628.052 378.229C541.185 384.917 510.621 454.232 423.439 455.994C311.972 458.247 210.461 378.229 101.077 425.783C18.1143 461.85 -63 616 -63 616V-880Z" fill="#5D49C5"/>
<path d="M-6.58276 -880C-6.58276 -880 86.484 -812.128 157.494 -789.933C267.759 -755.469 343.694 -816.441 456.692 -789.933C553.531 -767.216 586.369 -702.859 684.469 -684.951C793.89 -664.977 862.158 -741.319 968.868 -711.914C1078.94 -681.582 1146.38 -633.423 1190.85 -538.665C1258.31 -394.941 995.506 -311.405 1044.15 -161.762C1071.75 -76.8642 1187.8 -65.3894 1190.85 22.9604C1194.05 115.375 1044.81 127.848 1044.15 220.304C1043.53 306.029 1145.91 308.188 1115.57 389.537C1087.76 464.107 1056.22 494.943 968.868 505.419C851.288 519.52 802.646 400.859 684.469 410.189C597.602 417.048 567.039 488.123 479.856 489.93C368.39 492.24 266.878 410.189 157.494 458.951C74.5315 495.935 -6.58276 654 -6.58276 654V-880Z" fill="#E5E5E5" fill-opacity="0.25"/>
<path d="M-6.58276 -813C-6.58276 -813 76.154 -752.782 139.282 -733.091C237.308 -702.514 304.815 -756.609 405.271 -733.091C491.361 -712.936 520.554 -655.837 607.765 -639.948C705.041 -622.226 765.731 -689.959 860.597 -663.87C958.454 -636.959 1018.4 -594.231 1057.94 -510.16C1117.92 -382.645 884.278 -308.529 927.523 -175.763C952.058 -100.439 1055.23 -90.2589 1057.94 -11.8729C1060.78 70.1191 928.114 81.1854 927.523 163.215C926.976 239.272 1017.99 241.188 991.017 313.362C966.295 379.522 938.254 406.881 860.597 416.175C756.068 428.686 712.825 323.407 607.765 331.686C530.54 337.771 503.369 400.83 425.863 402.433C326.769 404.482 236.525 331.685 139.282 374.948C65.5282 407.761 -6.58276 548 -6.58276 548V-813Z" fill="#000B54"/>
<path d="M136.414 407.501C136.443 407.501 136.471 407.501 136.5 407.501C146.958 407.501 145.015 407.501 136.414 407.501C94.1406 407.686 198.347 545.289 295.092 576.544C393.597 608.368 452.019 526.724 559.184 518.096C728.662 504.45 818.294 585.819 988.332 576.544C1110.09 569.903 1171.56 497.876 1290.44 518.096C1374.16 532.336 1476 604.135 1476 604.135V794.001H33.5016L33.5016 407.5C33.5016 407.5 111.932 407.501 136.414 407.501Z" fill="#7F70CD"/>
<path d="M292.552 615.416C198.485 572.328 57.4419 476.523 107.5 394C153.239 318.598 -1.87402 335.836 -1.87402 335.836L2.5 2154.5H1440V653.427C1440 653.427 1341.05 554.511 1259.69 534.893C1144.18 507.038 1084.45 606.267 966.15 615.416C800.929 628.194 713.837 516.094 549.161 534.893C445.033 546.78 388.266 659.259 292.552 615.416Z" fill="#000B54" stroke="black"/>
</svg>
