<svg width="1440" height="884" viewBox="0 0 1440 884" fill="none" xmlns="http://www.w3.org/2000/svg">
<path d="M-63 -274C-63 -274 30.0668 -207.809 101.077 -186.165C211.341 -152.554 287.277 -212.016 400.275 -186.165C497.114 -164.01 529.952 -101.248 628.052 -83.7831C737.473 -64.3032 805.74 -138.754 912.451 -110.078C1022.53 -80.4969 1089.96 -33.5313 1134.44 58.8796C1201.9 199.043 939.089 280.51 987.733 426.446C1015.33 509.241 1131.38 520.431 1134.44 606.592C1137.63 696.717 988.397 708.881 987.733 799.047C987.117 882.649 1089.49 884.755 1059.15 964.088C1031.35 1036.81 999.804 1066.88 912.451 1077.1C794.87 1090.85 746.229 975.129 628.052 984.229C541.185 990.917 510.621 1060.23 423.439 1061.99C311.972 1064.25 210.461 984.229 101.077 1031.78C18.1143 1067.85 -63 1222 -63 1222V-274Z" fill="#5D49C5"/>
<path d="M-6.58276 -274C-6.58276 -274 86.484 -206.128 157.494 -183.933C267.759 -149.469 343.694 -210.441 456.692 -183.933C553.531 -161.216 586.369 -96.8594 684.469 -78.9514C793.89 -58.9767 862.158 -135.319 968.868 -105.914C1078.94 -75.5817 1146.38 -27.4232 1190.85 67.3351C1258.31 211.059 995.506 294.595 1044.15 444.238C1071.75 529.136 1187.8 540.611 1190.85 628.96C1194.05 721.375 1044.81 733.848 1044.15 826.304C1043.53 912.029 1145.91 914.188 1115.57 995.537C1087.76 1070.11 1056.22 1100.94 968.868 1111.42C851.288 1125.52 802.646 1006.86 684.469 1016.19C597.602 1023.05 567.039 1094.12 479.856 1095.93C368.39 1098.24 266.878 1016.19 157.494 1064.95C74.5315 1101.93 -6.58276 1260 -6.58276 1260V-274Z" fill="#E5E5E5" fill-opacity="0.25"/>
<path d="M-6.58276 -207C-6.58276 -207 76.154 -146.782 139.282 -127.091C237.308 -96.5137 304.815 -150.609 405.271 -127.091C491.361 -106.936 520.554 -49.8368 607.765 -33.9484C705.041 -16.2264 765.731 -83.9591 860.597 -57.8702C958.454 -30.9587 1018.4 11.7686 1057.94 95.8403C1117.92 223.355 884.278 297.471 927.523 430.237C952.058 505.561 1055.23 515.741 1057.94 594.127C1060.78 676.119 928.114 687.185 927.523 769.215C926.976 845.272 1017.99 847.188 991.017 919.362C966.295 985.522 938.254 1012.88 860.597 1022.18C756.068 1034.69 712.825 929.407 607.765 937.686C530.54 943.771 503.369 1006.83 425.863 1008.43C326.769 1010.48 236.525 937.685 139.282 980.948C65.5282 1013.76 -6.58276 1154 -6.58276 1154V-207Z" fill="#000B54"/>
</svg>
