<svg width="1440" height="1123" viewBox="0 0 1440 1123" fill="none" xmlns="http://www.w3.org/2000/svg">
<path d="M-63 60C-63 60 30.0668 126.191 101.077 147.835C211.341 181.446 287.277 121.984 400.275 147.835C497.114 169.99 529.952 232.752 628.052 250.217C737.473 269.697 805.74 195.246 912.451 223.922C1022.53 253.503 1089.96 300.469 1134.44 392.88C1201.9 533.043 939.089 614.51 987.733 760.446C1015.33 843.241 1131.38 854.431 1134.44 940.592C1137.63 1030.72 988.397 1042.88 987.733 1133.05C987.117 1216.65 1089.49 1218.75 1059.15 1298.09C1031.35 1370.81 999.804 1400.88 912.451 1411.1C794.87 1424.85 746.229 1309.13 628.052 1318.23C541.185 1324.92 510.621 1394.23 423.439 1395.99C311.972 1398.25 210.461 1318.23 101.077 1365.78C18.1143 1401.85 -63 1556 -63 1556V60Z" fill="#5D49C5"/>
<path d="M-6.58276 60C-6.58276 60 86.484 127.872 157.494 150.067C267.759 184.531 343.694 123.559 456.692 150.067C553.531 172.784 586.369 237.141 684.469 255.049C793.89 275.023 862.158 198.681 968.868 228.086C1078.94 258.418 1146.38 306.577 1190.85 401.335C1258.31 545.059 995.506 628.595 1044.15 778.238C1071.75 863.136 1187.8 874.611 1190.85 962.96C1194.05 1055.37 1044.81 1067.85 1044.15 1160.3C1043.53 1246.03 1145.91 1248.19 1115.57 1329.54C1087.76 1404.11 1056.22 1434.94 968.868 1445.42C851.288 1459.52 802.646 1340.86 684.469 1350.19C597.602 1357.05 567.039 1428.12 479.856 1429.93C368.39 1432.24 266.878 1350.19 157.494 1398.95C74.5315 1435.93 -6.58276 1594 -6.58276 1594V60Z" fill="#E5E5E5" fill-opacity="0.25"/>
<path d="M-6.58276 127C-6.58276 127 76.154 187.218 139.282 206.909C237.308 237.486 304.815 183.391 405.271 206.909C491.361 227.064 520.554 284.163 607.765 300.052C705.041 317.774 765.731 250.041 860.597 276.13C958.454 303.041 1018.4 345.769 1057.94 429.84C1117.92 557.355 884.278 631.471 927.523 764.237C952.058 839.561 1055.23 849.741 1057.94 928.127C1060.78 1010.12 928.114 1021.19 927.523 1103.21C926.976 1179.27 1017.99 1181.19 991.017 1253.36C966.295 1319.52 938.254 1346.88 860.597 1356.18C756.068 1368.69 712.825 1263.41 607.765 1271.69C530.54 1277.77 503.369 1340.83 425.863 1342.43C326.769 1344.48 236.525 1271.69 139.282 1314.95C65.5282 1347.76 -6.58276 1488 -6.58276 1488V127Z" fill="#000B54"/>
</svg>
