<svg width="1439" height="396" viewBox="0 0 1439 396" fill="none" xmlns="http://www.w3.org/2000/svg">
<path d="M1345.42 128.02L1439.28 72.8314L1469.2 -682.41C1469.2 -682.41 1349.18 -772.026 1232.83 -728.231C1149.21 -696.755 1079.87 -583.483 995.752 -554.138C894.536 -518.829 801.253 -586.514 697.486 -565.956C606.226 -547.876 565.339 -472.32 473.096 -472.167C384.587 -472.02 346.78 -571.506 258.82 -557.819C189.045 -546.962 163.229 -489.829 97.7364 -457.877C60.4831 -439.702 0.556616 -417.375 0.556616 -417.375L-30.234 359.705L60.1032 363.285C128.354 365.989 194.74 340.657 243.84 293.174C303.016 235.946 386.566 211.509 467.253 227.83L485.187 231.457C538.125 242.165 593.017 237.602 643.461 218.3L723.024 187.856C820.057 150.726 925.301 140.422 1027.69 158.026L1106.74 171.616C1188.95 185.75 1273.52 170.305 1345.42 128.02Z" fill="#441AE7" fill-opacity="0.7"/>
<path d="M1345.79 157.323L1439.55 103.842L1468.92 -637.366C1468.92 -637.366 1347.54 -725.459 1230.02 -682.609C1145.56 -651.813 1075.63 -540.72 990.666 -512.016C888.433 -477.478 794.095 -544.016 689.267 -523.958C597.073 -506.318 555.845 -432.21 462.638 -432.166C373.203 -432.124 334.886 -529.809 246.021 -516.477C175.529 -505.902 149.509 -449.857 83.3681 -418.572C45.7461 -400.777 -14.7815 -378.933 -14.7815 -378.933L-45 383.708L47.7217 387.382C115.882 390.083 182.273 365.302 231.995 318.602C291.799 262.433 375.018 238.547 455.509 254.448L475.927 258.482C529.319 269.03 584.587 264.601 635.618 245.685L715.923 215.917C814.035 179.548 919.968 169.537 1023.16 186.882L1103.51 200.39C1186.82 214.394 1272.41 199.18 1345.79 157.323Z" fill="#E5E5E5" fill-opacity="0.25"/>
<path d="M1354.33 61.3442L1440 16V-606.5C1440 -606.5 1316.53 -676.335 1202 -636.5C1119.69 -607.871 1054.89 -512.393 972 -485.5C872.262 -453.142 776.372 -505.802 673.5 -485.5C583.028 -467.645 545.164 -404.134 453 -401C364.566 -397.993 322.849 -478.632 235.5 -464.5C166.209 -453.29 142.676 -405.43 78.5 -377C41.9955 -360.828 -17 -340.5 -17 -340.5V300H81.8506C145.396 300 206.828 277.174 254.956 235.681C312.27 186.267 387.97 163.703 462.984 173.671L494.539 177.865C547.145 184.855 600.659 179.287 650.7 161.617L728.771 134.047C824.858 100.116 927.339 88.1922 1028.65 99.1566L1110.81 108.049C1194.83 117.141 1279.64 100.875 1354.33 61.3442Z" fill="#441AE7"/>
</svg>
