<svg width="1440" height="288" viewBox="0 0 1440 288" fill="none" xmlns="http://www.w3.org/2000/svg">
<path d="M1065.98 158.4C1140.34 179.804 1190.76 137.517 1264.95 159.482C1364.82 189.053 1469.56 324.879 1469.56 324.879L1454.63 -12.4053L-101.68 56.5096C-101.68 56.5096 42.8631 103.387 138.984 105.729C222.586 107.766 267.754 74.8796 351.312 78.1038C441.06 81.5668 486.129 117.182 575.205 128.066C725.951 146.484 821.078 61.9307 964.147 110.843C1005.82 125.09 1023.61 146.203 1065.98 158.4Z" fill="#3015BB"/>
<path d="M1084.2 141.453C1158.56 162.857 1208.98 120.57 1283.17 142.535C1383.04 172.106 1487.78 307.932 1487.78 307.932L1472.85 -29.3527L-83.4597 39.5622C-83.4597 39.5622 61.083 86.4399 157.204 88.7817C240.806 90.8186 285.974 57.9322 369.532 61.1564C459.28 64.6195 504.349 100.235 593.425 111.119C744.171 129.537 839.298 44.9833 982.367 93.8958C1024.04 108.142 1041.83 129.256 1084.2 141.453Z" fill="#5D49C5"/>
<path d="M1048.67 103.227C1125.79 124.473 1178.17 82.1586 1255.09 103.965C1358.65 133.321 1467.09 268.775 1467.09 268.775L1452.18 -68.0079L-162.565 3.49454C-162.565 3.49454 -12.6866 50.0568 87.0316 52.2296C173.763 54.1194 220.681 21.2014 307.363 24.2769C400.469 27.5802 447.165 63.0679 539.561 73.7824C695.923 91.9147 794.76 7.31623 943.106 55.913C986.313 70.0674 1004.73 91.1205 1048.67 103.227Z" fill="#441AE7"/>
</svg>
