<svg width="1440" height="219" viewBox="0 0 1440 219" fill="none" xmlns="http://www.w3.org/2000/svg">
<path d="M89.2248 844.167L-18.4785 809.423L-165.41 94.4785C-165.41 94.4785 -45.8421 -11.9176 89.7556 9.54113C187.208 24.9633 281.142 120.876 378.828 134.18C496.364 150.188 589.594 69.3689 707.737 70.8654C811.641 72.1816 868.353 137.093 970.646 121.144C1068.8 105.84 1095.73 4.3774 1195.32 2.07995C1274.31 0.257476 1311.54 50.2329 1388.96 69.273C1433 80.1033 1502.81 90.9369 1502.81 90.9369L1653.99 826.554L1546.95 847.158C1475.87 860.842 1401.9 847.776 1339.34 810.482C1264.64 765.962 1174.39 756.323 1092.73 784.145L1061.86 794.662C1005.38 813.905 944.841 818.915 885.612 809.248L793.049 794.138C679.303 775.572 563.078 783.711 453.674 817.906L364.697 845.716C275.268 873.667 178.992 873.125 89.2248 844.167Z" fill="#3015BB"/>
<path d="M91.6885 820.882L-28.497 788.454L-160.064 147.225C-160.064 147.225 -37.35 48.7913 98.5845 65.2474C196.279 77.0743 288.603 161.519 386.581 171.432C504.468 183.36 600.102 108.538 718.93 107.374C823.436 106.35 879.017 163.647 982.294 147.097C1081.39 131.216 1110.8 39.1991 1211.04 35.0106C1290.56 31.688 1326.87 75.9373 1404.34 91.4509C1448.4 100.275 1518.38 108.555 1518.38 108.555L1653.75 768.325L1540.7 790.116C1471.64 803.426 1399.83 792.904 1337.06 760.277C1262.6 721.572 1175.94 714.222 1096.68 739.891L1057.81 752.479C1000.99 770.882 940.651 776.546 881.092 769.068L788.368 757.427C673.996 743.068 558.135 752.628 448.216 785.495L340.411 817.731C259.68 841.87 173.523 842.962 91.6885 820.882Z" fill="#5D49C5"/>
<path d="M89.742 761.894L-38.8436 730.267L-125.139 182.795C-125.139 182.795 2.06679 99.7998 134.56 114.82C229.781 125.615 314.853 198.262 410.481 207.428C525.541 218.457 624.549 155.387 741.411 155.265C844.188 155.158 894.97 204.398 997.581 191.048C1096.04 178.239 1131.11 100.029 1229.91 97.1932C1308.28 94.9435 1341.01 132.922 1416.1 146.711C1458.81 154.555 1527.03 162.123 1527.03 162.123L1615.82 725.426L1498.07 743.986C1432.25 754.362 1364.82 744.613 1304.63 716.017C1233.7 682.316 1153.08 674.954 1077.22 695.247L1030.16 707.835C973.581 722.969 914.648 727.237 856.481 720.412L766.108 709.809C654.311 696.692 541.066 703.789 431.782 730.763L306.009 761.806C234.989 779.335 160.776 779.365 89.742 761.894Z" fill="#441AE7"/>
</svg>
