<svg width="1440" height="298" viewBox="0 0 1440 298" fill="none" xmlns="http://www.w3.org/2000/svg">
<path d="M89.2248 907.167L-18.4785 872.423L-165.41 157.478C-165.41 157.478 -45.8421 51.0824 89.7556 72.5411C187.208 87.9633 281.142 183.876 378.828 197.18C496.364 213.188 589.594 132.369 707.737 133.865C811.641 135.182 868.353 200.093 970.646 184.144C1068.8 168.84 1095.73 67.3774 1195.32 65.0799C1274.31 63.2575 1311.54 113.233 1388.96 132.273C1433 143.103 1502.81 153.937 1502.81 153.937L1653.99 889.554L1546.95 910.158C1475.87 923.842 1401.9 910.776 1339.34 873.482C1264.64 828.962 1174.39 819.323 1092.73 847.145L1061.86 857.662C1005.38 876.905 944.841 881.915 885.612 872.248L793.049 857.138C679.303 838.572 563.078 846.711 453.674 880.906L364.697 908.716C275.268 936.667 178.992 936.125 89.2248 907.167Z" fill="#3015BB"/>
<path d="M91.6884 883.882L-28.4971 851.454L-160.064 210.225C-160.064 210.225 -37.3501 111.791 98.5844 128.247C196.279 140.074 288.603 224.519 386.581 234.432C504.468 246.36 600.102 171.538 718.93 170.374C823.436 169.35 879.017 226.647 982.294 210.097C1081.39 194.216 1110.8 102.199 1211.04 98.0106C1290.56 94.688 1326.87 138.937 1404.33 154.451C1448.4 163.275 1518.38 171.555 1518.38 171.555L1653.75 831.325L1540.7 853.116C1471.64 866.426 1399.83 855.904 1337.06 823.277C1262.6 784.572 1175.94 777.222 1096.68 802.891L1057.81 815.479C1000.99 833.882 940.651 839.546 881.092 832.068L788.368 820.427C673.996 806.068 558.135 815.628 448.216 848.495L340.411 880.731C259.68 904.87 173.523 905.962 91.6884 883.882Z" fill="#5D49C5"/>
<path d="M89.742 824.894L-38.8436 793.267L-125.139 245.795C-125.139 245.795 2.06679 162.8 134.56 177.82C229.781 188.615 314.853 261.262 410.481 270.428C525.541 281.457 624.549 218.387 741.411 218.265C844.188 218.158 894.97 267.398 997.581 254.048C1096.04 241.239 1131.11 163.029 1229.91 160.193C1308.28 157.944 1341.01 195.922 1416.1 209.711C1458.81 217.555 1527.03 225.123 1527.03 225.123L1615.82 788.426L1498.07 806.986C1432.25 817.362 1364.82 807.613 1304.63 779.017C1233.7 745.316 1153.08 737.954 1077.22 758.247L1030.16 770.835C973.581 785.969 914.648 790.237 856.481 783.412L766.108 772.809C654.311 759.692 541.066 766.789 431.782 793.763L306.009 824.806C234.989 842.335 160.776 842.365 89.742 824.894Z" fill="#441AE7"/>
</svg>
