<svg width="1440" height="219" viewBox="0 0 1440 219" fill="none" xmlns="http://www.w3.org/2000/svg">
<path d="M89.2248 177.167L-18.4785 142.423L-165.41 -572.522C-165.41 -572.522 -45.8421 -678.918 89.7556 -657.459C187.208 -642.037 281.142 -546.124 378.828 -532.82C496.364 -516.812 589.594 -597.631 707.737 -596.135C811.641 -594.818 868.353 -529.907 970.646 -545.856C1068.8 -561.16 1095.73 -662.623 1195.32 -664.92C1274.31 -666.743 1311.54 -616.767 1388.96 -597.727C1433 -586.897 1502.81 -576.063 1502.81 -576.063L1653.99 159.554L1546.95 180.158C1475.87 193.842 1401.9 180.776 1339.34 143.482C1264.64 98.9622 1174.39 89.3231 1092.73 117.145L1061.86 127.662C1005.38 146.905 944.841 151.915 885.612 142.248L793.049 127.138C679.303 108.572 563.078 116.711 453.674 150.906L364.697 178.716C275.268 206.667 178.992 206.125 89.2248 177.167Z" fill="#3015BB"/>
<path d="M91.6885 153.882L-28.497 121.454L-160.064 -519.775C-160.064 -519.775 -37.35 -618.209 98.5845 -601.753C196.279 -589.926 288.603 -505.481 386.581 -495.568C504.468 -483.64 600.102 -558.462 718.93 -559.626C823.436 -560.65 879.017 -503.353 982.294 -519.903C1081.39 -535.784 1110.8 -627.801 1211.04 -631.989C1290.56 -635.312 1326.87 -591.063 1404.34 -575.549C1448.4 -566.725 1518.38 -558.445 1518.38 -558.445L1653.75 101.325L1540.7 123.116C1471.64 136.426 1399.83 125.904 1337.06 93.2774C1262.6 54.572 1175.94 47.2222 1096.68 72.8909L1057.81 85.4791C1000.99 103.882 940.651 109.546 881.092 102.068L788.368 90.4268C673.996 76.0676 558.135 85.6281 448.216 118.495L340.411 150.731C259.68 174.87 173.523 175.962 91.6885 153.882Z" fill="#5D49C5"/>
<path d="M89.742 94.8936L-38.8436 63.2668L-125.139 -484.205C-125.139 -484.205 2.06679 -567.2 134.56 -552.18C229.781 -541.385 314.853 -468.738 410.481 -459.572C525.541 -448.543 624.549 -511.613 741.411 -511.735C844.188 -511.842 894.97 -462.602 997.581 -475.952C1096.04 -488.761 1131.11 -566.971 1229.91 -569.807C1308.28 -572.056 1341.01 -534.078 1416.1 -520.289C1458.81 -512.445 1527.03 -504.877 1527.03 -504.877L1615.82 58.4257L1498.07 76.9857C1432.25 87.3616 1364.82 77.6128 1304.63 49.0165C1233.7 15.3159 1153.08 7.95377 1077.22 28.2472L1030.16 40.8355C973.581 55.969 914.648 60.2366 856.481 53.412L766.108 42.8087C654.311 29.6917 541.066 36.7894 431.782 63.7629L306.009 94.8058C234.989 112.335 160.776 112.365 89.742 94.8936Z" fill="#000B54"/>
</svg>
