<svg width="1440" height="674" viewBox="0 0 1440 674" fill="none" xmlns="http://www.w3.org/2000/svg">
<rect y="-38" width="1440" height="1273" fill="#441AE7"/>
<path d="M-63 93C-63 93 30.0668 159.191 101.077 180.835C211.341 214.446 287.277 154.984 400.275 180.835C497.114 202.99 529.952 265.752 628.052 283.217C737.473 302.697 805.74 228.246 912.451 256.922C1022.53 286.503 1089.96 333.469 1134.44 425.88C1201.9 566.043 939.089 647.51 987.733 793.446C1015.33 876.241 1131.38 887.431 1134.44 973.592C1137.63 1063.72 988.397 1075.88 987.733 1166.05C987.117 1249.65 1089.49 1251.75 1059.15 1331.09C1031.35 1403.81 999.804 1433.88 912.451 1444.1C794.87 1457.85 746.229 1342.13 628.052 1351.23C541.185 1357.92 510.621 1427.23 423.439 1428.99C311.972 1431.25 210.461 1351.23 101.077 1398.78C18.1143 1434.85 -63 1589 -63 1589V93Z" fill="#5D49C5"/>
<path d="M-6.58276 93C-6.58276 93 86.484 160.872 157.494 183.067C267.759 217.531 343.694 156.559 456.692 183.067C553.531 205.784 586.369 270.141 684.469 288.049C793.89 308.023 862.158 231.681 968.868 261.086C1078.94 291.418 1146.38 339.577 1190.85 434.335C1258.31 578.059 995.506 661.595 1044.15 811.238C1071.75 896.136 1187.8 907.611 1190.85 995.96C1194.05 1088.37 1044.81 1100.85 1044.15 1193.3C1043.53 1279.03 1145.91 1281.19 1115.57 1362.54C1087.76 1437.11 1056.22 1467.94 968.868 1478.42C851.288 1492.52 802.646 1373.86 684.469 1383.19C597.602 1390.05 567.039 1461.12 479.856 1462.93C368.39 1465.24 266.878 1383.19 157.494 1431.95C74.5315 1468.93 -6.58276 1627 -6.58276 1627V93Z" fill="#E5E5E5" fill-opacity="0.25"/>
<path d="M-6.58276 160C-6.58276 160 76.154 220.218 139.282 239.909C237.308 270.486 304.815 216.391 405.271 239.909C491.361 260.064 520.554 317.163 607.765 333.052C705.041 350.774 765.731 283.041 860.597 309.13C958.454 336.041 1018.4 378.769 1057.94 462.84C1117.92 590.355 884.278 664.471 927.523 797.237C952.058 872.561 1055.23 882.741 1057.94 961.127C1060.78 1043.12 928.114 1054.19 927.523 1136.21C926.976 1212.27 1017.99 1214.19 991.017 1286.36C966.295 1352.52 938.254 1379.88 860.597 1389.18C756.068 1401.69 712.825 1296.41 607.765 1304.69C530.54 1310.77 503.369 1373.83 425.863 1375.43C326.769 1377.48 236.525 1304.69 139.282 1347.95C65.5282 1380.76 -6.58276 1521 -6.58276 1521V160Z" fill="#000B54"/>
</svg>
