<svg width="1440" height="254" viewBox="0 0 1440 254" fill="none" xmlns="http://www.w3.org/2000/svg">
<path d="M-45 128C-45 128 11.1291 189.834 98.9931 190C212.786 190.215 236.253 120.889 349.803 128C453.286 134.481 491.945 172.686 595.376 165.5C676.315 159.877 762.491 103.858 843.568 100.5C945.384 96.2824 1069.5 209.941 1169.25 190C1261.44 171.572 1231.6 65.6634 1311.68 113C1377.65 152 1463 -29 1463 -29V939H-45V128Z" fill="#7D5FF2" fill-opacity="0.7"/>
<path d="M0 167.412C0 167.412 54.4914 244.768 139.792 244.976C250.265 245.246 273.047 158.516 383.283 167.412C483.747 175.52 521.278 223.316 621.692 214.326C700.269 207.291 783.931 137.21 862.642 133.009C961.487 127.732 1081.99 269.923 1178.82 244.976C1268.32 221.922 1239.35 89.427 1317.09 148.647C1381.14 197.437 1464 -29 1464 -29V1182H0V167.412Z" fill="#441AE7"/>
</svg>
