<svg width="1439" height="408" viewBox="0 0 1439 408" fill="none" xmlns="http://www.w3.org/2000/svg">
<path d="M1345.42 879.02L1439.28 823.831L1469.2 68.5897C1469.2 68.5897 1349.18 -21.026 1232.83 22.7695C1149.21 54.2448 1079.87 167.517 995.752 196.862C894.536 232.171 801.253 164.486 697.486 185.044C606.226 203.124 565.339 278.68 473.096 278.833C384.587 278.98 346.78 179.494 258.82 193.181C189.045 204.038 163.229 261.171 97.7364 293.123C60.4831 311.298 0.556616 333.625 0.556616 333.625L-30.234 1110.71L60.1032 1114.28C128.354 1116.99 194.74 1091.66 243.84 1044.17C303.016 986.946 386.566 962.509 467.253 978.83L485.187 982.457C538.125 993.165 593.017 988.602 643.461 969.3L723.024 938.856C820.057 901.726 925.301 891.422 1027.69 909.026L1106.74 922.616C1188.95 936.75 1273.52 921.305 1345.42 879.02Z" fill="#441AE7" fill-opacity="0.7"/>
<path d="M1345.79 908.323L1439.55 854.842L1468.92 113.634C1468.92 113.634 1347.54 25.5413 1230.02 68.3911C1145.56 99.1868 1075.63 210.28 990.666 238.984C888.433 273.522 794.095 206.984 689.267 227.042C597.073 244.682 555.845 318.79 462.638 318.834C373.203 318.876 334.886 221.191 246.021 234.523C175.529 245.098 149.509 301.143 83.3681 332.428C45.7461 350.223 -14.7815 372.067 -14.7815 372.067L-45 1134.71L47.7217 1138.38C115.882 1141.08 182.273 1116.3 231.995 1069.6C291.799 1013.43 375.018 989.547 455.509 1005.45L475.927 1009.48C529.319 1020.03 584.587 1015.6 635.618 996.685L715.923 966.917C814.035 930.548 919.968 920.537 1023.16 937.882L1103.51 951.39C1186.82 965.394 1272.41 950.18 1345.79 908.323Z" fill="#E5E5E5" fill-opacity="0.25"/>
<path d="M1354.33 812.344L1440 767V144.5C1440 144.5 1316.53 74.6646 1202 114.5C1119.69 143.129 1054.89 238.607 972 265.5C872.262 297.858 776.372 245.198 673.5 265.5C583.028 283.355 545.164 346.866 453 350C364.566 353.007 322.849 272.368 235.5 286.5C166.209 297.71 142.676 345.57 78.5 374C41.9955 390.172 -17 410.5 -17 410.5V1051H81.8506C145.396 1051 206.828 1028.17 254.956 986.681C312.27 937.267 387.97 914.703 462.984 924.671L494.539 928.865C547.145 935.855 600.659 930.287 650.7 912.617L728.771 885.047C824.858 851.116 927.339 839.192 1028.65 850.157L1110.81 859.049C1194.83 868.141 1279.64 851.875 1354.33 812.344Z" fill="#441AE7"/>
</svg>
